<svg width="150" height="145" viewBox="0 0 150 145" fill="none" xmlns="http://www.w3.org/2000/svg">
<path d="M47.9988 26.5106C47.9988 26.5106 50.3836 21.4474 57.7945 17.3561C65.2054 13.2648 83.0395 16.8679 90.6919 23.9061C98.3443 30.9442 95.5429 39.5231 98.0735 41.8854C100.619 44.2165 114.213 49.0066 118.968 60.9196C123.723 72.8327 117.13 79.0966 117.168 81.5671C117.206 84.0377 122.906 92.6684 118.218 106.53C113.529 120.392 96.166 115.788 92.0969 112.785C89.1539 110.58 90.7533 105.51 91.8524 102.938L92.6032 101.344C92.6032 101.344 92.2777 101.955 91.8524 102.938L81.8418 124.191C81.8418 124.191 73.1691 128.329 53.7202 119.144C34.2712 109.958 27.5328 99.6241 27.5328 99.6241L39.2365 74.7769C39.2365 74.7769 29.5628 66.8469 28.4173 60.1883C27.2571 53.5609 29.4845 39.8213 34.319 33.3852C39.2614 26.959 47.9988 26.5106 47.9988 26.5106Z" fill="#B7AB98"/>
<path d="M93.0468 101.435L92.3131 103.013C92.7287 102.04 93.0468 101.435 93.0468 101.435Z" fill="#B7AB98"/>
<path d="M47.9411 26.4773C47.9411 26.4773 50.3226 21.421 57.7229 17.3352C65.1233 13.2494 82.9319 16.8476 90.5734 23.8762C91.6718 24.8886 92.5398 25.9125 93.2706 26.9889C90.0379 26.128 86.544 25.9811 83.1727 26.5293C76.7686 27.6241 70.8944 31.177 66.2887 35.7796C62.8723 39.2107 60.0576 43.4349 59.3756 48.1479C58.6935 52.8609 60.6051 58.0397 64.7891 60.2252C67.2035 55.975 69.693 51.6449 73.5638 48.6029C77.3887 45.5784 82.9708 44.1585 87.1271 46.4826C86.37 51.2755 82.4503 54.8991 79.6927 58.9224C76.9351 62.9457 75.4674 69.0084 79.1172 72.0892C82.4222 74.8669 87.4487 73.3527 91.8167 72.6789C98.4693 71.6938 105.377 73.2717 110.794 76.9813C110.785 80.1062 107.061 82.1198 103.922 82.0163C100.782 81.9129 97.8601 80.4726 94.7305 80.1095C91.601 79.7465 87.7838 81.0026 86.9886 84.0446C86.5755 85.5588 86.8946 87.5091 85.576 88.3975C84.5303 89.1047 83.1052 88.6267 82.002 88.1022C75.1997 85.0253 68.3664 81.9347 61.5495 78.889C59.6389 78.0083 57.5437 77.1214 55.4144 77.5013C53.6218 77.8036 52.0941 78.9767 50.7363 80.1871C47.3117 83.2376 44.4397 86.9465 42.375 91.0116C41.9911 91.747 41.6399 92.5722 41.7953 93.3571C41.9328 94.0209 42.3905 94.5621 42.8612 94.996C45.5157 97.5622 49.0084 99.0656 52.3196 100.715C59.5011 104.261 66.1958 108.761 72.1847 114.042C72.8124 114.621 73.4711 115.213 73.8112 116.004C74.2657 117.109 74.0013 118.387 73.5799 119.521C72.8678 121.431 71.6736 123.091 70.2277 124.488C65.9835 123.784 60.5053 122.196 53.7161 119.012C34.2949 109.839 27.5662 99.5189 27.5662 99.5189L39.2532 74.7055C39.2532 74.7055 29.5933 66.7863 28.4495 60.1367C27.2909 53.5183 29.5152 39.7974 34.3428 33.37C39.2162 26.9251 47.9411 26.4773 47.9411 26.4773Z" fill="#A8A094"/>
<path d="M71.0799 75.2737L72.1207 76.1161C72.2311 76.2031 72.3579 76.3356 72.4682 76.4226C71.9495 76.0784 71.4916 75.6849 71.0799 75.2737Z" fill="#0D0D0D"/>
<path d="M46.6595 24.4118C47.8963 22.5038 50.8918 18.6161 56.7661 15.3946C63.5076 11.6876 75.9912 13.5718 84.3251 17.2489C87.5591 18.6758 90.2286 20.3444 92.2403 22.2135C97.6615 27.2102 98.4025 32.973 98.9009 36.779C99.0829 38.0673 99.2911 39.8578 99.6676 40.1749C100.092 40.5507 101.355 41.297 102.727 42.0532C108.152 45.1266 117.21 50.2177 121.133 59.9893C125.025 69.7472 121.901 76.2205 120.238 79.7521C119.943 80.3772 119.575 81.1585 119.505 81.4673C119.574 81.7996 119.839 82.6717 120.085 83.3463C121.465 87.3528 124.295 95.6982 120.401 107.154C118.896 111.624 116.086 114.801 112.075 116.618C105.319 119.639 97.1293 117.648 93.3355 115.974C92.3093 115.522 91.4517 115.03 90.7789 114.544C90.2781 114.172 89.8525 113.72 89.4727 113.251L83.9081 125.065C83.6873 125.533 83.311 125.934 82.8234 126.172C82.4421 126.343 73.6289 130.382 54.9399 122.136C54.2246 121.82 53.4783 121.491 52.7778 121.144C32.9872 111.808 26.0297 101.301 25.7121 100.859C25.2979 100.224 25.265 99.4164 25.5888 98.7288L36.5856 75.3823C33.7277 72.8379 27.3079 66.5324 26.3017 60.6149C25.0317 53.1842 27.5535 38.8198 32.6431 32.0812C36.9539 26.358 43.8039 24.8128 46.6595 24.4118ZM30.2887 55.5792C30.0355 57.3927 30.0783 58.6573 30.6104 59.7603C31.0787 60.7597 31.9593 61.6012 33.3817 62.5685C36.2738 64.5618 39.7287 65.52 43.2211 66.0794C45.941 66.5246 47.0125 64.8079 46.8908 62.0363C46.8183 60.1168 46.0553 58.308 45.4461 56.4915C43.2583 50.0525 43.034 42.5548 46.4758 36.5236C45.7482 39.1847 45.2071 41.9282 44.8968 44.6602C44.7008 46.2724 44.6128 47.8945 44.7555 49.5052C45.2331 55.1895 48.6479 59.9804 52.4602 63.9274C53.3425 64.8452 54.3411 66.154 55.4491 66.8316C56.7127 67.5779 58.4425 67.8126 59.8402 68.3538C62.0153 69.238 64.5948 71.0179 66.7185 68.8218C67.7427 67.7637 68.1727 66.2925 68.6045 64.8976C70.1874 59.7826 72.15 54.42 76.278 50.9188C77.8504 49.5741 79.6765 48.5679 81.4895 47.6691C75.9379 52.2787 71.84 58.5866 69.9416 65.4875C68.815 69.6336 69.0188 73.3474 72.0519 76.1579L71.0174 75.324C71.4577 75.7447 71.9128 76.1342 72.3972 76.4613C72.4447 76.5199 72.5069 76.5474 72.5855 76.6198C73.8082 77.6123 74.8148 78.5849 75.9245 79.3388L77.2258 80.4037C79.8741 82.5159 82.6713 84.3918 86.0509 85.43C76.539 82.8186 68.6546 76.4331 59.4632 72.9816C56.4355 71.8344 53.1835 71.0036 49.9254 71.3025C41.6727 72.0778 39.3752 79.7464 36.3868 86.0908C34.3111 90.4976 32.2501 94.8731 30.1744 99.2798C32.2959 101.952 39.5213 109.897 54.7538 117.108C55.4543 117.455 56.1384 117.757 56.8225 118.059C56.9469 118.114 57.0402 118.155 57.1646 118.21C60.6619 118.998 65.408 119.846 67.2604 119.342C70.3679 118.486 67.9774 113.355 61.5532 108.973C55.1289 104.59 31.9742 97.7713 31.9742 97.7713C31.9742 97.7713 56.1478 101.869 69.3562 110.188C76.7886 114.902 79.8955 118.274 81.2035 120.361C81.0595 120.108 82.2929 118.048 82.4107 117.798C83.3381 115.829 83.9074 115.099 82.6044 113.24C81.7613 112 80.8887 110.822 79.8493 109.76C78.1486 108.028 76.088 106.741 74.0421 105.423C77.6866 105.899 81.1417 107.574 83.7377 110.116C83.8949 110.261 84.0684 110.451 84.3155 110.485C84.4546 110.508 84.592 110.456 84.7295 110.403C86.5147 109.643 87.4275 107.705 88.2077 106.049C88.9143 104.549 89.77 103.529 90.6959 102.202C92.8783 99.1631 92.8576 94.6619 91.7833 91.2812C91.536 90.5304 91.2118 89.7833 90.6307 89.2627C91.5489 89.7056 92.153 90.5761 92.7096 91.3879C93.7278 92.8941 94.625 94.498 95.0787 96.2459C95.6864 98.7034 94.9457 101.472 93.8711 103.754C92.7147 106.527 91.9709 109.861 93.4571 110.932C93.6764 111.104 94.1919 111.445 95.187 111.884C99.1985 113.654 105.656 114.616 110.263 112.571C113.023 111.336 114.991 109.071 116.092 105.857C119.493 95.8446 117.06 88.731 115.745 84.9044C115.268 83.5239 114.939 82.5482 114.905 81.6648C114.895 80.4901 115.41 79.3962 116.087 77.9585C117.664 74.6906 120.036 69.735 116.844 61.7586C113.491 53.4087 105.243 48.7505 100.317 45.9728C98.5395 44.9621 97.2612 44.2471 96.4444 43.5092C94.9205 42.1196 94.6582 39.9654 94.3582 37.4926C93.8958 33.9289 93.322 29.4856 89.063 25.5302C87.413 24.0095 85.0873 22.5681 82.3197 21.3469C73.9547 17.6561 63.386 16.7301 58.7602 19.2944C52.1709 22.9176 49.9578 27.377 49.943 27.4082C49.575 28.1896 48.8158 28.685 47.9697 28.727C47.8928 28.7308 40.2489 29.1707 36.118 34.6714C31.6288 40.6934 31.3066 48.5541 30.2887 55.5792Z" fill="#0D0D0D"/>
<path d="M81.0891 78.44C83.8304 77.9045 86.2872 76.3699 88.943 75.4549C94.3318 73.621 100.536 74.464 105.045 77.7096C96.8537 78.6849 88.6938 79.6739 80.5027 80.6492C78.5897 80.8672 77.2485 80.3504 75.9779 79.5231L72.6083 76.7429C75.0557 78.3561 78.1785 79.0146 81.0891 78.44Z" fill="#0D0D0D"/>
<path d="M72.4721 76.4223C72.3618 76.3353 72.235 76.2028 72.1247 76.1158L72.6138 76.5231C72.5512 76.4954 72.5347 76.45 72.4721 76.4223Z" fill="#0D0D0D"/>
<path d="M64.8044 19.2573C68.9175 18.5802 73.1621 19.6979 76.613 21.8624C77.0501 22.1308 77.5035 22.4441 77.7295 22.9214C77.9555 23.3987 77.9229 24.0262 77.4991 24.3678C74.1155 23.1769 70.1314 22.7027 66.9203 24.4952C65.6422 25.215 64.6014 26.2283 63.5606 27.2416C62.384 28.3837 61.2074 29.5259 60.0308 30.668C59.3516 31.3123 58.7036 31.9703 57.8493 32.3485C57.026 32.7404 55.9965 32.8525 55.232 32.4019C54.5297 31.9787 54.158 31.1728 54.0481 30.3692C53.8481 28.9595 54.2635 27.5192 54.8983 26.2513C56.8191 22.4925 60.6912 19.9344 64.8044 19.2573Z" fill="#4D4D4D"/>
<path d="M99.0104 102.125C99.3943 102.106 99.7521 102.302 100.079 102.484C101.992 103.517 105.392 105.055 107.535 103.927C107.733 103.826 107.899 103.711 108.08 103.565C109.59 102.271 110.073 99.7334 112.523 100.023C112.801 100.07 113.11 100.131 113.353 100.013C113.596 99.8939 113.76 99.6268 113.877 99.3772C114.258 98.4898 115.089 92.1863 116.858 95.7554C117.356 96.7668 117.404 98.2576 117.381 99.3406C117.388 101.793 116.688 104.235 115.334 106.314C112.968 109.905 108.667 112.19 104.423 112.127C101.963 112.096 99.4699 111.26 97.9682 109.354C96.4665 107.447 96.34 104.452 98.0386 102.676C98.3244 102.388 98.6266 102.144 99.0104 102.125Z" fill="#4D4D4D"/>
</svg>
