<svg width="62" height="62" viewBox="0 0 62 62" fill="none" xmlns="http://www.w3.org/2000/svg">
<g clip-path="url(#clip0_725_314)">
<path d="M23.959 8.24902L9.37866 39.5166L11.9843 40.7317L16.8444 30.3091L42.9007 42.4594L52.621 21.6143L23.959 8.24902ZM25.3496 12.0697L29.258 13.8922L27.4355 17.8007L31.344 19.6232L33.1665 15.7148L37.0749 17.5373L35.2524 21.4458L39.1609 23.2683L40.9834 19.3599L44.8919 21.1824L43.0693 25.0908L46.9778 26.9134L45.1552 30.8218L41.2468 28.9993L39.4242 32.9077L43.3327 34.7303L41.5101 38.6387L37.6017 36.8162L39.4242 32.9077L35.5158 31.0852L33.6932 34.9937L29.7848 33.1711L31.6073 29.2627L27.6989 27.4401L25.8763 31.3486L21.9679 29.526L23.7904 25.6176L19.882 23.795L21.7045 19.8866L25.613 21.7091L27.4355 17.8007L23.5271 15.9781L25.3496 12.0697ZM25.613 21.7091L23.7904 25.6176L27.6989 27.4401L29.5214 23.5317L25.613 21.7091ZM29.5214 23.5317L33.4299 25.3542L35.2524 21.4458L31.344 19.6232L29.5214 23.5317ZM33.4299 25.3542L31.6073 29.2627L35.5158 31.0852L37.3383 27.1768L33.4299 25.3542ZM37.3383 27.1768L41.2468 28.9993L43.0693 25.0908L39.1609 23.2683L37.3383 27.1768Z" fill="white"/>
</g>
<defs>
<clipPath id="clip0_725_314">
<rect width="46" height="46" fill="white" transform="translate(19.875) rotate(25)"/>
</clipPath>
</defs>
</svg>
