<svg width="1365" height="899" viewBox="0 0 1365 899" fill="none" xmlns="http://www.w3.org/2000/svg">
<g filter="url(#filter0_if_761_763)">
<path d="M1582.49 773.637C1559.41 1142.84 1268.84 1424.15 934.566 1403.26C600.294 1382.37 347.005 1067.07 370.078 697.867C393.152 328.663 683.727 47.356 1018 68.2465C1352.27 89.1374 1605.56 404.434 1582.49 773.637Z" stroke="url(#paint0_linear_761_763)" stroke-width="12"/>
</g>
<g filter="url(#filter1_if_761_763)">
<path d="M1793.72 786.462C1772.4 1127.61 1485.29 1386.88 1152.93 1366.11C820.565 1345.34 567.975 1052.34 589.295 711.191C610.616 370.042 897.72 110.767 1230.09 131.539C1562.45 152.31 1815.04 445.313 1793.72 786.462Z" stroke="url(#paint1_linear_761_763)" stroke-width="20"/>
</g>
<g filter="url(#filter2_if_761_763)">
<path d="M1670.88 778.222C1649.56 1119.37 1362.45 1378.64 1030.09 1357.87C697.724 1337.1 445.134 1044.1 466.454 702.951C487.775 361.802 774.88 102.527 1107.24 123.298C1439.61 144.07 1692.2 437.073 1670.88 778.222Z" stroke="url(#paint2_linear_761_763)" stroke-width="20"/>
</g>
<g filter="url(#filter3_if_761_763)">
<path d="M1602.31 773.017C1580.99 1114.17 1293.88 1373.44 961.52 1352.67C629.156 1331.9 376.566 1038.89 397.886 697.745C419.206 356.597 706.311 97.3219 1038.68 118.093C1371.04 138.865 1623.63 431.868 1602.31 773.017Z" stroke="url(#paint3_linear_761_763)" stroke-width="20"/>
</g>
<g filter="url(#filter4_if_761_763)">
<path d="M1704.9 766.881C1683.58 1108.03 1396.47 1367.3 1064.11 1346.53C731.744 1325.76 479.154 1032.76 500.474 691.61C521.795 350.461 808.899 91.1861 1141.26 111.958C1473.63 132.729 1726.22 425.732 1704.9 766.881Z" stroke="url(#paint4_linear_761_763)" stroke-width="20"/>
</g>
<g filter="url(#filter5_if_761_763)">
<path d="M1725.86 780.721C1704.54 1121.87 1417.44 1381.14 1085.07 1360.37C752.71 1339.6 500.121 1046.6 521.441 705.45C542.761 364.301 829.866 105.026 1162.23 125.797C1494.59 146.569 1747.18 439.572 1725.86 780.721Z" stroke="url(#paint5_linear_761_763)" stroke-width="20"/>
</g>
<g filter="url(#filter6_if_761_763)">
<path d="M1796.43 759.049C1777.88 1055.93 1494.15 1281.61 1160.51 1260.76C826.876 1239.91 573.454 980.662 592.008 683.777C610.562 386.893 894.29 161.213 1227.93 182.064C1561.56 202.915 1814.98 462.164 1796.43 759.049Z" stroke="url(#paint6_linear_761_763)" stroke-width="20"/>
</g>
<g filter="url(#filter7_if_761_763)">
<path d="M1880.17 791.864C1860.64 1104.33 1575.7 1341.81 1242.54 1320.99C909.378 1300.17 656.22 1029.05 675.747 716.593C695.275 404.132 980.218 166.645 1313.38 187.466C1646.54 208.288 1899.7 479.403 1880.17 791.864Z" stroke="url(#paint7_linear_761_763)" stroke-width="20"/>
</g>
<g filter="url(#filter8_if_761_763)">
<path d="M1881.01 778.427C1862.76 1070.42 1579.42 1292.4 1245.63 1271.54C911.836 1250.68 658.338 995.152 676.586 703.156C694.835 411.159 978.175 189.181 1311.97 210.041C1645.76 230.902 1899.26 486.43 1881.01 778.427Z" stroke="url(#paint8_linear_761_763)" stroke-width="20"/>
</g>
<g filter="url(#filter9_if_761_763)">
<path d="M1887.4 748.223C1879.64 872.361 1806.11 981.322 1692.07 1056.93C1578.02 1132.54 1423.93 1174.38 1256.85 1163.94C1089.77 1153.49 942.09 1092.8 838.344 1003.58C734.605 914.358 675.215 797.09 682.973 672.952C690.731 548.814 764.259 439.852 878.3 364.245C992.347 288.634 1146.44 246.797 1313.52 257.239C1480.6 267.681 1628.28 328.377 1732.02 417.599C1835.76 506.817 1895.15 624.085 1887.4 748.223Z" stroke="url(#paint9_linear_761_763)" stroke-width="20"/>
</g>
<g filter="url(#filter10_if_761_763)">
<path d="M1964.36 759.223C1948.85 1007.44 1677.14 1196.39 1352.32 1176.09C1027.49 1155.79 781.423 934.479 796.935 686.264C812.447 438.049 1084.16 249.095 1408.98 269.395C1733.8 289.695 1979.87 511.008 1964.36 759.223Z" stroke="url(#paint10_linear_761_763)" stroke-width="20"/>
</g>
<g filter="url(#filter11_f_761_763)">
<ellipse cx="570.5" cy="796" rx="170.5" ry="150" fill="#1BA94C"/>
</g>
<g filter="url(#filter12_f_761_763)">
<ellipse cx="635" cy="860" rx="161" ry="86" fill="#1BA94C"/>
</g>
<defs>
<filter id="filter0_if_761_763" x="327.62" y="26.1533" width="1297.32" height="1419.2" filterUnits="userSpaceOnUse" color-interpolation-filters="sRGB">
<feFlood flood-opacity="0" result="BackgroundImageFix"/>
<feBlend mode="normal" in="SourceGraphic" in2="BackgroundImageFix" result="shape"/>
<feColorMatrix in="SourceAlpha" type="matrix" values="0 0 0 0 0 0 0 0 0 0 0 0 0 0 0 0 0 0 127 0" result="hardAlpha"/>
<feOffset dy="4"/>
<feGaussianBlur stdDeviation="2"/>
<feComposite in2="hardAlpha" operator="arithmetic" k2="-1" k3="1"/>
<feColorMatrix type="matrix" values="0 0 0 0 0 0 0 0 0 0 0 0 0 0 0 0 0 0 0.25 0"/>
<feBlend mode="normal" in2="shape" result="effect1_innerShadow_761_763"/>
<feGaussianBlur stdDeviation="17.5" result="effect2_foregroundBlur_761_763"/>
</filter>
<filter id="filter1_if_761_763" x="478.039" y="20.3721" width="1426.93" height="1456.91" filterUnits="userSpaceOnUse" color-interpolation-filters="sRGB">
<feFlood flood-opacity="0" result="BackgroundImageFix"/>
<feBlend mode="normal" in="SourceGraphic" in2="BackgroundImageFix" result="shape"/>
<feColorMatrix in="SourceAlpha" type="matrix" values="0 0 0 0 0 0 0 0 0 0 0 0 0 0 0 0 0 0 127 0" result="hardAlpha"/>
<feOffset dy="4"/>
<feGaussianBlur stdDeviation="2"/>
<feComposite in2="hardAlpha" operator="arithmetic" k2="-1" k3="1"/>
<feColorMatrix type="matrix" values="0 0 0 0 0 0 0 0 0 0 0 0 0 0 0 0 0 0 0.25 0"/>
<feBlend mode="normal" in2="shape" result="effect1_innerShadow_761_763"/>
<feGaussianBlur stdDeviation="50" result="effect2_foregroundBlur_761_763"/>
</filter>
<filter id="filter2_if_761_763" x="355.198" y="12.1318" width="1426.93" height="1456.91" filterUnits="userSpaceOnUse" color-interpolation-filters="sRGB">
<feFlood flood-opacity="0" result="BackgroundImageFix"/>
<feBlend mode="normal" in="SourceGraphic" in2="BackgroundImageFix" result="shape"/>
<feColorMatrix in="SourceAlpha" type="matrix" values="0 0 0 0 0 0 0 0 0 0 0 0 0 0 0 0 0 0 127 0" result="hardAlpha"/>
<feOffset dy="4"/>
<feGaussianBlur stdDeviation="2"/>
<feComposite in2="hardAlpha" operator="arithmetic" k2="-1" k3="1"/>
<feColorMatrix type="matrix" values="0 0 0 0 0 0 0 0 0 0 0 0 0 0 0 0 0 0 0.25 0"/>
<feBlend mode="normal" in2="shape" result="effect1_innerShadow_761_763"/>
<feGaussianBlur stdDeviation="50" result="effect2_foregroundBlur_761_763"/>
</filter>
<filter id="filter3_if_761_763" x="311.63" y="31.9268" width="1376.93" height="1406.91" filterUnits="userSpaceOnUse" color-interpolation-filters="sRGB">
<feFlood flood-opacity="0" result="BackgroundImageFix"/>
<feBlend mode="normal" in="SourceGraphic" in2="BackgroundImageFix" result="shape"/>
<feColorMatrix in="SourceAlpha" type="matrix" values="0 0 0 0 0 0 0 0 0 0 0 0 0 0 0 0 0 0 127 0" result="hardAlpha"/>
<feOffset dy="4"/>
<feGaussianBlur stdDeviation="2"/>
<feComposite in2="hardAlpha" operator="arithmetic" k2="-1" k3="1"/>
<feColorMatrix type="matrix" values="0 0 0 0 0 0 0 0 0 0 0 0 0 0 0 0 0 0 0.25 0"/>
<feBlend mode="normal" in2="shape" result="effect1_innerShadow_761_763"/>
<feGaussianBlur stdDeviation="37.5" result="effect2_foregroundBlur_761_763"/>
</filter>
<filter id="filter4_if_761_763" x="389.218" y="0.791016" width="1426.93" height="1456.91" filterUnits="userSpaceOnUse" color-interpolation-filters="sRGB">
<feFlood flood-opacity="0" result="BackgroundImageFix"/>
<feBlend mode="normal" in="SourceGraphic" in2="BackgroundImageFix" result="shape"/>
<feColorMatrix in="SourceAlpha" type="matrix" values="0 0 0 0 0 0 0 0 0 0 0 0 0 0 0 0 0 0 127 0" result="hardAlpha"/>
<feOffset dy="4"/>
<feGaussianBlur stdDeviation="2"/>
<feComposite in2="hardAlpha" operator="arithmetic" k2="-1" k3="1"/>
<feColorMatrix type="matrix" values="0 0 0 0 0 0 0 0 0 0 0 0 0 0 0 0 0 0 0.25 0"/>
<feBlend mode="normal" in2="shape" result="effect1_innerShadow_761_763"/>
<feGaussianBlur stdDeviation="50" result="effect2_foregroundBlur_761_763"/>
</filter>
<filter id="filter5_if_761_763" x="410.185" y="14.6309" width="1426.93" height="1456.91" filterUnits="userSpaceOnUse" color-interpolation-filters="sRGB">
<feFlood flood-opacity="0" result="BackgroundImageFix"/>
<feBlend mode="normal" in="SourceGraphic" in2="BackgroundImageFix" result="shape"/>
<feColorMatrix in="SourceAlpha" type="matrix" values="0 0 0 0 0 0 0 0 0 0 0 0 0 0 0 0 0 0 127 0" result="hardAlpha"/>
<feOffset dy="4"/>
<feGaussianBlur stdDeviation="2"/>
<feComposite in2="hardAlpha" operator="arithmetic" k2="-1" k3="1"/>
<feColorMatrix type="matrix" values="0 0 0 0 0 0 0 0 0 0 0 0 0 0 0 0 0 0 0.25 0"/>
<feBlend mode="normal" in2="shape" result="effect1_innerShadow_761_763"/>
<feGaussianBlur stdDeviation="50" result="effect2_foregroundBlur_761_763"/>
</filter>
<filter id="filter6_if_761_763" x="481.048" y="70.7305" width="1426.34" height="1301.37" filterUnits="userSpaceOnUse" color-interpolation-filters="sRGB">
<feFlood flood-opacity="0" result="BackgroundImageFix"/>
<feBlend mode="normal" in="SourceGraphic" in2="BackgroundImageFix" result="shape"/>
<feColorMatrix in="SourceAlpha" type="matrix" values="0 0 0 0 0 0 0 0 0 0 0 0 0 0 0 0 0 0 127 0" result="hardAlpha"/>
<feOffset dy="4"/>
<feGaussianBlur stdDeviation="2"/>
<feComposite in2="hardAlpha" operator="arithmetic" k2="-1" k3="1"/>
<feColorMatrix type="matrix" values="0 0 0 0 0 0 0 0 0 0 0 0 0 0 0 0 0 0 0.25 0"/>
<feBlend mode="normal" in2="shape" result="effect1_innerShadow_761_763"/>
<feGaussianBlur stdDeviation="50" result="effect2_foregroundBlur_761_763"/>
</filter>
<filter id="filter7_if_761_763" x="564.688" y="76.1963" width="1426.54" height="1356.06" filterUnits="userSpaceOnUse" color-interpolation-filters="sRGB">
<feFlood flood-opacity="0" result="BackgroundImageFix"/>
<feBlend mode="normal" in="SourceGraphic" in2="BackgroundImageFix" result="shape"/>
<feColorMatrix in="SourceAlpha" type="matrix" values="0 0 0 0 0 0 0 0 0 0 0 0 0 0 0 0 0 0 127 0" result="hardAlpha"/>
<feOffset dy="4"/>
<feGaussianBlur stdDeviation="2"/>
<feComposite in2="hardAlpha" operator="arithmetic" k2="-1" k3="1"/>
<feColorMatrix type="matrix" values="0 0 0 0 0 0 0 0 0 0 0 0 0 0 0 0 0 0 0.25 0"/>
<feBlend mode="normal" in2="shape" result="effect1_innerShadow_761_763"/>
<feGaussianBlur stdDeviation="50" result="effect2_foregroundBlur_761_763"/>
</filter>
<filter id="filter8_if_761_763" x="565.657" y="98.6865" width="1426.28" height="1284.21" filterUnits="userSpaceOnUse" color-interpolation-filters="sRGB">
<feFlood flood-opacity="0" result="BackgroundImageFix"/>
<feBlend mode="normal" in="SourceGraphic" in2="BackgroundImageFix" result="shape"/>
<feColorMatrix in="SourceAlpha" type="matrix" values="0 0 0 0 0 0 0 0 0 0 0 0 0 0 0 0 0 0 127 0" result="hardAlpha"/>
<feOffset dy="4"/>
<feGaussianBlur stdDeviation="2"/>
<feComposite in2="hardAlpha" operator="arithmetic" k2="-1" k3="1"/>
<feColorMatrix type="matrix" values="0 0 0 0 0 0 0 0 0 0 0 0 0 0 0 0 0 0 0.25 0"/>
<feBlend mode="normal" in2="shape" result="effect1_innerShadow_761_763"/>
<feGaussianBlur stdDeviation="50" result="effect2_foregroundBlur_761_763"/>
</filter>
<filter id="filter9_if_761_763" x="572.295" y="145.656" width="1425.78" height="1129.86" filterUnits="userSpaceOnUse" color-interpolation-filters="sRGB">
<feFlood flood-opacity="0" result="BackgroundImageFix"/>
<feBlend mode="normal" in="SourceGraphic" in2="BackgroundImageFix" result="shape"/>
<feColorMatrix in="SourceAlpha" type="matrix" values="0 0 0 0 0 0 0 0 0 0 0 0 0 0 0 0 0 0 127 0" result="hardAlpha"/>
<feOffset dy="4"/>
<feGaussianBlur stdDeviation="2"/>
<feComposite in2="hardAlpha" operator="arithmetic" k2="-1" k3="1"/>
<feColorMatrix type="matrix" values="0 0 0 0 0 0 0 0 0 0 0 0 0 0 0 0 0 0 0.25 0"/>
<feBlend mode="normal" in2="shape" result="effect1_innerShadow_761_763"/>
<feGaussianBlur stdDeviation="50" result="effect2_foregroundBlur_761_763"/>
</filter>
<filter id="filter10_if_761_763" x="686.236" y="157.907" width="1388.82" height="1129.67" filterUnits="userSpaceOnUse" color-interpolation-filters="sRGB">
<feFlood flood-opacity="0" result="BackgroundImageFix"/>
<feBlend mode="normal" in="SourceGraphic" in2="BackgroundImageFix" result="shape"/>
<feColorMatrix in="SourceAlpha" type="matrix" values="0 0 0 0 0 0 0 0 0 0 0 0 0 0 0 0 0 0 127 0" result="hardAlpha"/>
<feOffset dy="4"/>
<feGaussianBlur stdDeviation="2"/>
<feComposite in2="hardAlpha" operator="arithmetic" k2="-1" k3="1"/>
<feColorMatrix type="matrix" values="0 0 0 0 0 0 0 0 0 0 0 0 0 0 0 0 0 0 0.25 0"/>
<feBlend mode="normal" in2="shape" result="effect1_innerShadow_761_763"/>
<feGaussianBlur stdDeviation="50" result="effect2_foregroundBlur_761_763"/>
</filter>
<filter id="filter11_f_761_763" x="0" y="246" width="1141" height="1100" filterUnits="userSpaceOnUse" color-interpolation-filters="sRGB">
<feFlood flood-opacity="0" result="BackgroundImageFix"/>
<feBlend mode="normal" in="SourceGraphic" in2="BackgroundImageFix" result="shape"/>
<feGaussianBlur stdDeviation="200" result="effect1_foregroundBlur_761_763"/>
</filter>
<filter id="filter12_f_761_763" x="74" y="374" width="1122" height="972" filterUnits="userSpaceOnUse" color-interpolation-filters="sRGB">
<feFlood flood-opacity="0" result="BackgroundImageFix"/>
<feBlend mode="normal" in="SourceGraphic" in2="BackgroundImageFix" result="shape"/>
<feGaussianBlur stdDeviation="200" result="effect1_foregroundBlur_761_763"/>
</filter>
<linearGradient id="paint0_linear_761_763" x1="1018.37" y1="62.2582" x2="934.192" y2="1409.25" gradientUnits="userSpaceOnUse">
<stop stop-color="#1DDB5E"/>
<stop offset="1" stop-color="#146730"/>
</linearGradient>
<linearGradient id="paint1_linear_761_763" x1="1230.71" y1="121.558" x2="1152.31" y2="1376.09" gradientUnits="userSpaceOnUse">
<stop stop-color="#1DDB5E"/>
<stop offset="1" stop-color="#146730"/>
</linearGradient>
<linearGradient id="paint2_linear_761_763" x1="1107.87" y1="113.318" x2="782.034" y2="879.999" gradientUnits="userSpaceOnUse">
<stop stop-color="#146730"/>
<stop offset="1" stop-color="#484848"/>
</linearGradient>
<linearGradient id="paint3_linear_761_763" x1="1039.3" y1="108.113" x2="960.896" y2="1362.65" gradientUnits="userSpaceOnUse">
<stop stop-color="#1DDB5E"/>
<stop offset="1" stop-color="#146730"/>
</linearGradient>
<linearGradient id="paint4_linear_761_763" x1="1141.89" y1="101.977" x2="1063.48" y2="1356.51" gradientUnits="userSpaceOnUse">
<stop stop-color="#1DDB5E"/>
<stop offset="1" stop-color="#146730"/>
</linearGradient>
<linearGradient id="paint5_linear_761_763" x1="1162.85" y1="115.817" x2="1084.45" y2="1370.35" gradientUnits="userSpaceOnUse">
<stop stop-color="#1DDB5E"/>
<stop offset="1" stop-color="#146730"/>
</linearGradient>
<linearGradient id="paint6_linear_761_763" x1="1228.55" y1="172.083" x2="1159.89" y2="1270.74" gradientUnits="userSpaceOnUse">
<stop stop-color="#202020"/>
<stop offset="1" stop-color="#146730"/>
</linearGradient>
<linearGradient id="paint7_linear_761_763" x1="1314" y1="177.486" x2="1241.91" y2="1330.97" gradientUnits="userSpaceOnUse">
<stop stop-color="#1DDB5E"/>
<stop offset="1" stop-color="#146730"/>
</linearGradient>
<linearGradient id="paint8_linear_761_763" x1="1312.59" y1="200.061" x2="1245" y2="1281.52" gradientUnits="userSpaceOnUse">
<stop stop-color="#1DDB5E"/>
<stop offset="1" stop-color="#146730"/>
</linearGradient>
<linearGradient id="paint9_linear_761_763" x1="1314.14" y1="247.258" x2="1256.23" y2="1173.92" gradientUnits="userSpaceOnUse">
<stop stop-color="#1DDB5E"/>
<stop offset="1" stop-color="#146730"/>
</linearGradient>
<linearGradient id="paint10_linear_761_763" x1="1409.6" y1="259.414" x2="1351.69" y2="1186.07" gradientUnits="userSpaceOnUse">
<stop stop-color="#1DDB5E"/>
<stop offset="1" stop-color="#146730"/>
</linearGradient>
</defs>
</svg>
