<svg width="18" height="20" viewBox="0 0 18 20" fill="none" xmlns="http://www.w3.org/2000/svg">
<path d="M2.04752 19.0141C1.49667 19.0141 1.02528 18.8181 0.63334 18.4262C0.241404 18.0342 0.0451013 17.5625 0.0444336 17.011V2.98941C0.0444336 2.43856 0.240736 1.96717 0.63334 1.57523C1.02594 1.1833 1.49734 0.986996 2.04752 0.986328H8.05677C8.34054 0.986328 8.57857 1.08248 8.77087 1.27477C8.96317 1.46707 9.05898 1.70477 9.05831 1.98787C9.05764 2.27097 8.9615 2.50901 8.76987 2.70197C8.57824 2.89493 8.34054 2.99075 8.05677 2.98941H2.04752V17.011H8.05677C8.34054 17.011 8.57857 17.1071 8.77087 17.2994C8.96317 17.4917 9.05898 17.7294 9.05831 18.0125C9.05764 18.2956 8.9615 18.5337 8.76987 18.7266C8.57824 18.9196 8.34054 19.0154 8.05677 19.0141H2.04752ZM14.2413 11.0017H7.05523C6.77146 11.0017 6.53376 10.9056 6.34213 10.7133C6.1505 10.521 6.05435 10.2833 6.05369 10.0002C6.05302 9.7171 6.14917 9.4794 6.34213 9.28711C6.53509 9.09481 6.77279 8.99866 7.05523 8.99866H14.2413L12.3634 7.12077C12.1798 6.93716 12.088 6.71181 12.088 6.44473C12.088 6.17765 12.1798 5.94396 12.3634 5.74365C12.547 5.54334 12.7807 5.43885 13.0645 5.43017C13.3482 5.42149 13.5903 5.51764 13.7906 5.71861L17.3711 9.29913C17.5714 9.49944 17.6716 9.73313 17.6716 10.0002C17.6716 10.2673 17.5714 10.501 17.3711 10.7013L13.7906 14.2818C13.5903 14.4821 13.3526 14.5783 13.0775 14.5702C12.8024 14.5622 12.5644 14.4577 12.3634 14.2568C12.1798 14.0565 12.0923 13.8188 12.101 13.5437C12.1097 13.2686 12.2055 13.0389 12.3884 12.8546L14.2413 11.0017Z" fill="#B7AB98"/>
</svg>
