<svg width="82" height="28" viewBox="0 0 82 28" fill="none" xmlns="http://www.w3.org/2000/svg">
<path d="M14.5852 1.99277C15.3318 0.909566 16.5632 0.262695 17.8788 0.262695H63.8085C65.1241 0.262695 66.3555 0.909564 67.1021 1.99277L80.6864 21.7029C82.5153 24.3565 80.6156 27.9728 77.3928 27.9728H4.29449C1.07167 27.9728 -0.827946 24.3565 1.00094 21.7029L14.5852 1.99277Z" fill="#B7AB98" fill-opacity="0.5"/>
<path d="M17.8789 0.762695H63.8086C64.9596 0.76272 66.0372 1.32862 66.6904 2.27637L80.2744 21.9863C81.8747 24.3083 80.2125 27.4727 77.3926 27.4727H4.29492C1.47495 27.4727 -0.187193 24.3083 1.41309 21.9863L14.9971 2.27637C15.6503 1.32866 16.7279 0.762695 17.8789 0.762695Z" stroke="#B7AB98" stroke-opacity="0.5"/>
</svg>
