<svg width="1114" height="858" viewBox="0 0 1114 858" fill="none" xmlns="http://www.w3.org/2000/svg">
<g opacity="0.2">
<g filter="url(#filter0_if_725_128)">
<path d="M1271.49 773.638C1248.41 1142.84 957.838 1424.15 623.566 1403.26C289.294 1382.37 36.005 1067.07 59.0786 697.868C82.1522 328.664 372.727 47.3569 706.999 68.2475C1041.27 89.1383 1294.56 404.435 1271.49 773.638Z" stroke="url(#paint0_linear_725_128)" stroke-width="12"/>
</g>
<g filter="url(#filter1_if_725_128)">
<path d="M1482.72 786.463C1461.4 1127.61 1174.29 1386.89 841.93 1366.11C509.565 1345.34 256.975 1052.34 278.296 711.192C299.616 370.043 586.721 110.768 919.085 131.54C1251.45 152.311 1504.04 445.314 1482.72 786.463Z" stroke="url(#paint1_linear_725_128)" stroke-width="20"/>
</g>
<g filter="url(#filter2_if_725_128)">
<path d="M1359.88 778.223C1338.56 1119.37 1051.45 1378.65 719.089 1357.87C386.724 1337.1 134.135 1044.1 155.455 702.952C176.775 361.803 463.88 102.528 796.244 123.299C1128.61 144.071 1381.2 437.074 1359.88 778.223Z" stroke="url(#paint2_linear_725_128)" stroke-width="20"/>
</g>
<g filter="url(#filter3_if_725_128)">
<path d="M1291.31 773.018C1269.99 1114.17 982.885 1373.44 650.52 1352.67C318.156 1331.9 65.5663 1038.89 86.8864 697.746C108.207 356.598 395.311 97.3229 727.676 118.094C1060.04 138.866 1312.63 431.869 1291.31 773.018Z" stroke="url(#paint3_linear_725_128)" stroke-width="20"/>
</g>
<g filter="url(#filter4_if_725_128)">
<path d="M1393.9 766.882C1372.58 1108.03 1085.47 1367.3 753.108 1346.53C420.744 1325.76 168.154 1032.76 189.474 691.611C210.795 350.462 497.899 91.1871 830.264 111.958C1162.63 132.73 1415.22 425.733 1393.9 766.882Z" stroke="url(#paint4_linear_725_128)" stroke-width="20"/>
</g>
<g filter="url(#filter5_if_725_128)">
<path d="M1414.86 780.722C1393.54 1121.87 1106.44 1381.14 774.075 1360.37C441.711 1339.6 189.121 1046.6 210.441 705.451C231.761 364.302 518.866 105.027 851.231 125.798C1183.6 146.57 1436.18 439.573 1414.86 780.722Z" stroke="url(#paint5_linear_725_128)" stroke-width="20"/>
</g>
<g filter="url(#filter6_if_725_128)">
<path d="M1485.43 759.05C1466.88 1055.93 1183.15 1281.61 849.513 1260.76C515.876 1239.91 262.454 980.663 281.008 683.778C299.562 386.894 583.29 161.214 916.927 182.065C1250.56 202.916 1503.98 462.165 1485.43 759.05Z" stroke="url(#paint6_linear_725_128)" stroke-width="20"/>
</g>
<g filter="url(#filter7_if_725_128)">
<path d="M1569.17 791.865C1549.64 1104.33 1264.7 1341.81 931.539 1320.99C598.378 1300.17 345.22 1029.06 364.747 716.594C384.275 404.132 669.218 166.646 1002.38 187.467C1335.54 208.289 1588.7 479.404 1569.17 791.865Z" stroke="url(#paint7_linear_725_128)" stroke-width="20"/>
</g>
<g filter="url(#filter8_if_725_128)">
<path d="M1570.01 778.428C1551.76 1070.42 1268.42 1292.4 934.629 1271.54C600.837 1250.68 347.338 995.153 365.587 703.156C383.835 411.16 667.176 189.182 1000.97 210.042C1334.76 230.903 1588.26 486.431 1570.01 778.428Z" stroke="url(#paint8_linear_725_128)" stroke-width="20"/>
</g>
<g filter="url(#filter9_if_725_128)">
<path d="M1576.4 748.224C1568.64 872.362 1495.11 981.323 1381.07 1056.93C1267.02 1132.54 1112.93 1174.38 945.852 1163.94C778.772 1153.49 631.09 1092.8 527.344 1003.58C423.605 914.359 364.215 797.091 371.973 672.953C379.731 548.815 453.259 439.853 567.3 364.246C681.347 288.635 835.437 246.798 1002.52 257.24C1169.6 267.682 1317.28 328.378 1421.02 417.6C1524.76 506.818 1584.15 624.086 1576.4 748.224Z" stroke="url(#paint9_linear_725_128)" stroke-width="20"/>
</g>
<g filter="url(#filter10_if_725_128)">
<path d="M1653.36 759.224C1637.85 1007.44 1366.14 1196.39 1041.32 1176.09C716.496 1155.79 470.424 934.48 485.936 686.265C501.448 438.05 773.16 249.096 1097.98 269.396C1422.8 289.696 1668.87 511.009 1653.36 759.224Z" stroke="url(#paint10_linear_725_128)" stroke-width="20"/>
</g>
</g>
<defs>
<filter id="filter0_if_725_128" x="16.6206" y="26.1543" width="1297.32" height="1419.2" filterUnits="userSpaceOnUse" color-interpolation-filters="sRGB">
<feFlood flood-opacity="0" result="BackgroundImageFix"/>
<feBlend mode="normal" in="SourceGraphic" in2="BackgroundImageFix" result="shape"/>
<feColorMatrix in="SourceAlpha" type="matrix" values="0 0 0 0 0 0 0 0 0 0 0 0 0 0 0 0 0 0 127 0" result="hardAlpha"/>
<feOffset dy="4"/>
<feGaussianBlur stdDeviation="2"/>
<feComposite in2="hardAlpha" operator="arithmetic" k2="-1" k3="1"/>
<feColorMatrix type="matrix" values="0 0 0 0 0 0 0 0 0 0 0 0 0 0 0 0 0 0 0.25 0"/>
<feBlend mode="normal" in2="shape" result="effect1_innerShadow_725_128"/>
<feGaussianBlur stdDeviation="17.5" result="effect2_foregroundBlur_725_128"/>
</filter>
<filter id="filter1_if_725_128" x="167.04" y="20.373" width="1426.94" height="1456.91" filterUnits="userSpaceOnUse" color-interpolation-filters="sRGB">
<feFlood flood-opacity="0" result="BackgroundImageFix"/>
<feBlend mode="normal" in="SourceGraphic" in2="BackgroundImageFix" result="shape"/>
<feColorMatrix in="SourceAlpha" type="matrix" values="0 0 0 0 0 0 0 0 0 0 0 0 0 0 0 0 0 0 127 0" result="hardAlpha"/>
<feOffset dy="4"/>
<feGaussianBlur stdDeviation="2"/>
<feComposite in2="hardAlpha" operator="arithmetic" k2="-1" k3="1"/>
<feColorMatrix type="matrix" values="0 0 0 0 0 0 0 0 0 0 0 0 0 0 0 0 0 0 0.25 0"/>
<feBlend mode="normal" in2="shape" result="effect1_innerShadow_725_128"/>
<feGaussianBlur stdDeviation="50" result="effect2_foregroundBlur_725_128"/>
</filter>
<filter id="filter2_if_725_128" x="44.1987" y="12.1328" width="1426.94" height="1456.91" filterUnits="userSpaceOnUse" color-interpolation-filters="sRGB">
<feFlood flood-opacity="0" result="BackgroundImageFix"/>
<feBlend mode="normal" in="SourceGraphic" in2="BackgroundImageFix" result="shape"/>
<feColorMatrix in="SourceAlpha" type="matrix" values="0 0 0 0 0 0 0 0 0 0 0 0 0 0 0 0 0 0 127 0" result="hardAlpha"/>
<feOffset dy="4"/>
<feGaussianBlur stdDeviation="2"/>
<feComposite in2="hardAlpha" operator="arithmetic" k2="-1" k3="1"/>
<feColorMatrix type="matrix" values="0 0 0 0 0 0 0 0 0 0 0 0 0 0 0 0 0 0 0.25 0"/>
<feBlend mode="normal" in2="shape" result="effect1_innerShadow_725_128"/>
<feGaussianBlur stdDeviation="50" result="effect2_foregroundBlur_725_128"/>
</filter>
<filter id="filter3_if_725_128" x="0.630371" y="31.9277" width="1376.94" height="1406.91" filterUnits="userSpaceOnUse" color-interpolation-filters="sRGB">
<feFlood flood-opacity="0" result="BackgroundImageFix"/>
<feBlend mode="normal" in="SourceGraphic" in2="BackgroundImageFix" result="shape"/>
<feColorMatrix in="SourceAlpha" type="matrix" values="0 0 0 0 0 0 0 0 0 0 0 0 0 0 0 0 0 0 127 0" result="hardAlpha"/>
<feOffset dy="4"/>
<feGaussianBlur stdDeviation="2"/>
<feComposite in2="hardAlpha" operator="arithmetic" k2="-1" k3="1"/>
<feColorMatrix type="matrix" values="0 0 0 0 0 0 0 0 0 0 0 0 0 0 0 0 0 0 0.25 0"/>
<feBlend mode="normal" in2="shape" result="effect1_innerShadow_725_128"/>
<feGaussianBlur stdDeviation="37.5" result="effect2_foregroundBlur_725_128"/>
</filter>
<filter id="filter4_if_725_128" x="78.2183" y="0.791992" width="1426.94" height="1456.91" filterUnits="userSpaceOnUse" color-interpolation-filters="sRGB">
<feFlood flood-opacity="0" result="BackgroundImageFix"/>
<feBlend mode="normal" in="SourceGraphic" in2="BackgroundImageFix" result="shape"/>
<feColorMatrix in="SourceAlpha" type="matrix" values="0 0 0 0 0 0 0 0 0 0 0 0 0 0 0 0 0 0 127 0" result="hardAlpha"/>
<feOffset dy="4"/>
<feGaussianBlur stdDeviation="2"/>
<feComposite in2="hardAlpha" operator="arithmetic" k2="-1" k3="1"/>
<feColorMatrix type="matrix" values="0 0 0 0 0 0 0 0 0 0 0 0 0 0 0 0 0 0 0.25 0"/>
<feBlend mode="normal" in2="shape" result="effect1_innerShadow_725_128"/>
<feGaussianBlur stdDeviation="50" result="effect2_foregroundBlur_725_128"/>
</filter>
<filter id="filter5_if_725_128" x="99.1851" y="14.6318" width="1426.94" height="1456.91" filterUnits="userSpaceOnUse" color-interpolation-filters="sRGB">
<feFlood flood-opacity="0" result="BackgroundImageFix"/>
<feBlend mode="normal" in="SourceGraphic" in2="BackgroundImageFix" result="shape"/>
<feColorMatrix in="SourceAlpha" type="matrix" values="0 0 0 0 0 0 0 0 0 0 0 0 0 0 0 0 0 0 127 0" result="hardAlpha"/>
<feOffset dy="4"/>
<feGaussianBlur stdDeviation="2"/>
<feComposite in2="hardAlpha" operator="arithmetic" k2="-1" k3="1"/>
<feColorMatrix type="matrix" values="0 0 0 0 0 0 0 0 0 0 0 0 0 0 0 0 0 0 0.25 0"/>
<feBlend mode="normal" in2="shape" result="effect1_innerShadow_725_128"/>
<feGaussianBlur stdDeviation="50" result="effect2_foregroundBlur_725_128"/>
</filter>
<filter id="filter6_if_725_128" x="170.049" y="70.7314" width="1426.34" height="1301.37" filterUnits="userSpaceOnUse" color-interpolation-filters="sRGB">
<feFlood flood-opacity="0" result="BackgroundImageFix"/>
<feBlend mode="normal" in="SourceGraphic" in2="BackgroundImageFix" result="shape"/>
<feColorMatrix in="SourceAlpha" type="matrix" values="0 0 0 0 0 0 0 0 0 0 0 0 0 0 0 0 0 0 127 0" result="hardAlpha"/>
<feOffset dy="4"/>
<feGaussianBlur stdDeviation="2"/>
<feComposite in2="hardAlpha" operator="arithmetic" k2="-1" k3="1"/>
<feColorMatrix type="matrix" values="0 0 0 0 0 0 0 0 0 0 0 0 0 0 0 0 0 0 0.25 0"/>
<feBlend mode="normal" in2="shape" result="effect1_innerShadow_725_128"/>
<feGaussianBlur stdDeviation="50" result="effect2_foregroundBlur_725_128"/>
</filter>
<filter id="filter7_if_725_128" x="253.688" y="76.1973" width="1426.54" height="1356.06" filterUnits="userSpaceOnUse" color-interpolation-filters="sRGB">
<feFlood flood-opacity="0" result="BackgroundImageFix"/>
<feBlend mode="normal" in="SourceGraphic" in2="BackgroundImageFix" result="shape"/>
<feColorMatrix in="SourceAlpha" type="matrix" values="0 0 0 0 0 0 0 0 0 0 0 0 0 0 0 0 0 0 127 0" result="hardAlpha"/>
<feOffset dy="4"/>
<feGaussianBlur stdDeviation="2"/>
<feComposite in2="hardAlpha" operator="arithmetic" k2="-1" k3="1"/>
<feColorMatrix type="matrix" values="0 0 0 0 0 0 0 0 0 0 0 0 0 0 0 0 0 0 0.25 0"/>
<feBlend mode="normal" in2="shape" result="effect1_innerShadow_725_128"/>
<feGaussianBlur stdDeviation="50" result="effect2_foregroundBlur_725_128"/>
</filter>
<filter id="filter8_if_725_128" x="254.658" y="98.6875" width="1426.28" height="1284.21" filterUnits="userSpaceOnUse" color-interpolation-filters="sRGB">
<feFlood flood-opacity="0" result="BackgroundImageFix"/>
<feBlend mode="normal" in="SourceGraphic" in2="BackgroundImageFix" result="shape"/>
<feColorMatrix in="SourceAlpha" type="matrix" values="0 0 0 0 0 0 0 0 0 0 0 0 0 0 0 0 0 0 127 0" result="hardAlpha"/>
<feOffset dy="4"/>
<feGaussianBlur stdDeviation="2"/>
<feComposite in2="hardAlpha" operator="arithmetic" k2="-1" k3="1"/>
<feColorMatrix type="matrix" values="0 0 0 0 0 0 0 0 0 0 0 0 0 0 0 0 0 0 0.25 0"/>
<feBlend mode="normal" in2="shape" result="effect1_innerShadow_725_128"/>
<feGaussianBlur stdDeviation="50" result="effect2_foregroundBlur_725_128"/>
</filter>
<filter id="filter9_if_725_128" x="261.295" y="145.657" width="1425.78" height="1129.86" filterUnits="userSpaceOnUse" color-interpolation-filters="sRGB">
<feFlood flood-opacity="0" result="BackgroundImageFix"/>
<feBlend mode="normal" in="SourceGraphic" in2="BackgroundImageFix" result="shape"/>
<feColorMatrix in="SourceAlpha" type="matrix" values="0 0 0 0 0 0 0 0 0 0 0 0 0 0 0 0 0 0 127 0" result="hardAlpha"/>
<feOffset dy="4"/>
<feGaussianBlur stdDeviation="2"/>
<feComposite in2="hardAlpha" operator="arithmetic" k2="-1" k3="1"/>
<feColorMatrix type="matrix" values="0 0 0 0 0 0 0 0 0 0 0 0 0 0 0 0 0 0 0.25 0"/>
<feBlend mode="normal" in2="shape" result="effect1_innerShadow_725_128"/>
<feGaussianBlur stdDeviation="50" result="effect2_foregroundBlur_725_128"/>
</filter>
<filter id="filter10_if_725_128" x="375.237" y="157.908" width="1388.82" height="1129.67" filterUnits="userSpaceOnUse" color-interpolation-filters="sRGB">
<feFlood flood-opacity="0" result="BackgroundImageFix"/>
<feBlend mode="normal" in="SourceGraphic" in2="BackgroundImageFix" result="shape"/>
<feColorMatrix in="SourceAlpha" type="matrix" values="0 0 0 0 0 0 0 0 0 0 0 0 0 0 0 0 0 0 127 0" result="hardAlpha"/>
<feOffset dy="4"/>
<feGaussianBlur stdDeviation="2"/>
<feComposite in2="hardAlpha" operator="arithmetic" k2="-1" k3="1"/>
<feColorMatrix type="matrix" values="0 0 0 0 0 0 0 0 0 0 0 0 0 0 0 0 0 0 0.25 0"/>
<feBlend mode="normal" in2="shape" result="effect1_innerShadow_725_128"/>
<feGaussianBlur stdDeviation="50" result="effect2_foregroundBlur_725_128"/>
</filter>
<linearGradient id="paint0_linear_725_128" x1="707.373" y1="62.2592" x2="623.192" y2="1409.25" gradientUnits="userSpaceOnUse">
<stop stop-color="#1DDB5E"/>
<stop offset="1" stop-color="#146730"/>
</linearGradient>
<linearGradient id="paint1_linear_725_128" x1="919.709" y1="121.559" x2="841.305" y2="1376.09" gradientUnits="userSpaceOnUse">
<stop stop-color="#1DDB5E"/>
<stop offset="1" stop-color="#146730"/>
</linearGradient>
<linearGradient id="paint2_linear_725_128" x1="796.868" y1="113.319" x2="471.034" y2="880" gradientUnits="userSpaceOnUse">
<stop stop-color="#146730"/>
<stop offset="1" stop-color="#484848"/>
</linearGradient>
<linearGradient id="paint3_linear_725_128" x1="728.299" y1="108.114" x2="649.896" y2="1362.65" gradientUnits="userSpaceOnUse">
<stop stop-color="#1DDB5E"/>
<stop offset="1" stop-color="#146730"/>
</linearGradient>
<linearGradient id="paint4_linear_725_128" x1="830.887" y1="101.978" x2="752.484" y2="1356.51" gradientUnits="userSpaceOnUse">
<stop stop-color="#1DDB5E"/>
<stop offset="1" stop-color="#146730"/>
</linearGradient>
<linearGradient id="paint5_linear_725_128" x1="851.854" y1="115.818" x2="773.451" y2="1370.35" gradientUnits="userSpaceOnUse">
<stop stop-color="#1DDB5E"/>
<stop offset="1" stop-color="#146730"/>
</linearGradient>
<linearGradient id="paint6_linear_725_128" x1="917.55" y1="172.084" x2="848.889" y2="1270.74" gradientUnits="userSpaceOnUse">
<stop stop-color="#202020"/>
<stop offset="1" stop-color="#146730"/>
</linearGradient>
<linearGradient id="paint7_linear_725_128" x1="1003" y1="177.487" x2="930.915" y2="1330.97" gradientUnits="userSpaceOnUse">
<stop stop-color="#1DDB5E"/>
<stop offset="1" stop-color="#146730"/>
</linearGradient>
<linearGradient id="paint8_linear_725_128" x1="1001.59" y1="200.062" x2="934.005" y2="1281.52" gradientUnits="userSpaceOnUse">
<stop stop-color="#1DDB5E"/>
<stop offset="1" stop-color="#146730"/>
</linearGradient>
<linearGradient id="paint9_linear_725_128" x1="1003.14" y1="247.259" x2="945.228" y2="1173.92" gradientUnits="userSpaceOnUse">
<stop stop-color="#1DDB5E"/>
<stop offset="1" stop-color="#146730"/>
</linearGradient>
<linearGradient id="paint10_linear_725_128" x1="1098.6" y1="259.415" x2="1040.69" y2="1186.07" gradientUnits="userSpaceOnUse">
<stop stop-color="#1DDB5E"/>
<stop offset="1" stop-color="#146730"/>
</linearGradient>
</defs>
</svg>
