<svg width="18" height="19" viewBox="0 0 18 19" fill="none" xmlns="http://www.w3.org/2000/svg">
<path d="M9.02979 16.499C5.17104 16.499 2.02979 13.3578 2.02979 9.49902C2.02979 5.64027 5.17104 2.49902 9.02979 2.49902C12.8885 2.49902 16.0298 5.64027 16.0298 9.49902C16.0298 13.3578 12.8885 16.499 9.02979 16.499ZM9.02979 0.749023C4.19104 0.749023 0.279785 4.66027 0.279785 9.49902C0.279785 14.3378 4.19104 18.249 9.02979 18.249C13.8685 18.249 17.7798 14.3378 17.7798 9.49902C17.7798 4.66027 13.8685 0.749023 9.02979 0.749023ZM11.296 5.99902L9.02979 8.26527L6.76354 5.99902L5.52979 7.23277L7.79604 9.49902L5.52979 11.7653L6.76354 12.999L9.02979 10.7328L11.296 12.999L12.5298 11.7653L10.2635 9.49902L12.5298 7.23277L11.296 5.99902Z" fill="#B7AB98"/>
</svg>
