<svg width="37" height="45" viewBox="0 0 37 45" fill="none" xmlns="http://www.w3.org/2000/svg">
<path d="M30.5083 15.4018H29.6923C29.6612 15.4018 29.6363 15.3771 29.6363 15.3461V11.2498C29.6363 8.31231 28.5088 5.536 26.4595 3.44136C24.815 1.75574 22.7159 0.665044 20.4049 0.274624C13.5095 -0.90903 7.23069 4.45769 7.23069 11.4171V15.3461C7.23069 15.3771 7.20577 15.4018 7.17463 15.4018H6.45207C3.29399 15.4018 0.733887 17.9489 0.733887 21.0908V38.7093C0.733887 41.8512 3.29399 44.3983 6.45207 44.3983H30.446C33.6041 44.3983 36.1642 41.8512 36.1642 38.7093V21.035C36.1704 17.9241 33.6352 15.4018 30.5083 15.4018ZM9.91537 11.2498C9.91537 6.14951 13.3102 2.77827 18.4304 2.77827C20.9406 2.77827 22.8342 3.55911 24.541 5.3067C26.2103 7.01711 26.9453 8.85147 26.9453 11.2498V15.3461C26.9453 15.3771 26.9204 15.4018 26.8893 15.4018H9.97143C9.94029 15.4018 9.91537 15.3771 9.91537 15.3461V11.2498ZM33.492 38.7651C33.492 40.7481 32.5016 41.7335 30.5083 41.7335H6.4583C4.78271 41.7335 3.41857 40.3825 3.41857 38.7093V21.506C3.41857 19.6097 4.96335 18.0728 6.86941 18.0728H30.446C32.1216 18.0728 33.4857 19.4238 33.4857 21.097V38.7651H33.492Z" fill="#B7AB98"/>
</svg>
