<svg width="16" height="12" viewBox="0 0 16 12" fill="none" xmlns="http://www.w3.org/2000/svg">
<path fill-rule="evenodd" clip-rule="evenodd" d="M15.2345 0.594913C15.6555 0.966999 15.6949 1.61068 15.3228 2.03437L7.51441 10.8612C7.42423 10.9632 7.31453 11.046 7.19179 11.1049C7.06905 11.1637 6.93576 11.1974 6.7998 11.2038C6.66383 11.2103 6.52795 11.1894 6.40019 11.1425C6.27243 11.0955 6.15537 11.0234 6.05594 10.9305L0.963523 6.17756C0.767617 5.99293 0.65277 5.73826 0.644085 5.46921C0.635401 5.20016 0.733586 4.93861 0.917177 4.74174C1.10077 4.54487 1.35483 4.42868 1.62384 4.41859C1.89284 4.40849 2.1549 4.5053 2.35273 4.68786L6.68468 8.72105L13.8005 0.681824C13.8892 0.581461 13.9968 0.499585 14.1173 0.440886C14.2377 0.382186 14.3685 0.347815 14.5022 0.339742C14.6359 0.331669 14.7699 0.350052 14.8965 0.393838C15.0231 0.437625 15.1398 0.505954 15.2399 0.594913H15.2345Z" fill="#B7AB98"/>
</svg>
